<?xml version="1.0" encoding="utf-8"?>
<!-- Generator: Adobe Illustrator 16.0.4, SVG Export Plug-In . SVG Version: 6.00 Build 0)  -->
<!DOCTYPE svg PUBLIC "-//W3C//DTD SVG 1.1//EN" "http://www.w3.org/Graphics/SVG/1.1/DTD/svg11.dtd">
<svg version="1.1" id="Ebene_1" xmlns="http://www.w3.org/2000/svg" xmlns:xlink="http://www.w3.org/1999/xlink" x="0px" y="0px"
	 width="12px" height="16px" viewBox="4 2 12 16" enable-background="new 4 2 12 16" xml:space="preserve">
<path fill="#FFFFFF" d="M14,9h1c0.55,0,1,0.45,1,1v7c0,0.55-0.45,1-1,1H5c-0.55,0-1-0.45-1-1v-7c0-0.55,0.45-1,1-1h1V6
	c0-2.21,1.79-4,4-4s4,1.79,4,4V9z M12,9V6c0-1.1-0.9-2-2-2C8.9,4,8,4.9,8,6v3H12z M11,16l-0.359-2.15
	c0.51-0.24,0.859-0.75,0.859-1.35c0-0.83-0.67-1.5-1.5-1.5s-1.5,0.67-1.5,1.5c0,0.6,0.35,1.109,0.86,1.35L9,16H11z"/>
</svg>
